HIERARCHY
ROOT root
{
	OFFSET 0.000000 0.000000 0.000000
	CHANNELS 6 Xposition Yposition Zposition Zrotation Yrotation Xrotation
	JOINT lhip
	{
		OFFSET 0.058581 -0.082280 -0.017664
		CHANNELS 3 Zrotation Yrotation Xrotation
		JOINT lknee
		{
			OFFSET 0.043451 -0.386469 0.008037
			CHANNELS 3 Zrotation Yrotation Xrotation
			JOINT lankle
			{
				OFFSET -0.014790 -0.426874 -0.037428
				CHANNELS 3 Zrotation Yrotation Xrotation
				JOINT ltoe
				{
					OFFSET 0.041054 -0.060286 0.122042
					CHANNELS 3 Zrotation Yrotation Xrotation
					End Site
					{
						OFFSET 0.000000 0.000000 0.000000
					}
				}
			}
		}
	}
	JOINT rhip
	{
		OFFSET -0.060310 -0.090513 -0.013543
		CHANNELS 3 Zrotation Yrotation Xrotation
		JOINT rknee
		{
			OFFSET -0.043257 -0.383688 -0.004843
			CHANNELS 3 Zrotation Yrotation Xrotation
			JOINT rankle
			{
				OFFSET 0.019056 -0.420046 -0.034562
				CHANNELS 3 Zrotation Yrotation Xrotation
				JOINT rtoe
				{
					OFFSET -0.034840 -0.062106 0.130323
					CHANNELS 3 Zrotation Yrotation Xrotation
					End Site
					{
						OFFSET 0.000000 0.000000 0.000000
					}
				}
			}
		}
	}
	JOINT lowerback
	{
		OFFSET 0.004439 0.124404 -0.038385
		CHANNELS 3 Zrotation Yrotation Xrotation
		JOINT upperback
		{
			OFFSET 0.004488 0.137956 0.026820
			CHANNELS 3 Zrotation Yrotation Xrotation
			JOINT chest
			{
				OFFSET -0.002265 0.056032 0.002855
				CHANNELS 3 Zrotation Yrotation Xrotation
				JOINT lowerneck
				{
					OFFSET -0.013390 0.211636 -0.033468
					CHANNELS 3 Zrotation Yrotation Xrotation
					JOINT upperneck
					{
						OFFSET 0.010113 0.088937 0.050410
						CHANNELS 3 Zrotation Yrotation Xrotation
						End Site
						{
							OFFSET 0.000000 0.000000 0.000000
						}
					}
				}
				JOINT lclavicle
				{
					OFFSET 0.071702 0.114000 -0.018898
					CHANNELS 3 Zrotation Yrotation Xrotation
					JOINT lshoulder
					{
						OFFSET 0.122921 0.045205 -0.019046
						CHANNELS 3 Zrotation Yrotation Xrotation
						JOINT lelbow
						{
							OFFSET 0.255332 -0.015649 -0.022946
							CHANNELS 3 Zrotation Yrotation Xrotation
							JOINT lwrist
							{
								OFFSET 0.265709 0.012698 -0.007375
								CHANNELS 3 Zrotation Yrotation Xrotation
								End Site
								{
									OFFSET 0.000000 0.000000 0.000000
								}
							}
						}
					}
				}
				JOINT rclavicle
				{
					OFFSET -0.082954 0.112472 -0.023707
					CHANNELS 3 Zrotation Yrotation Xrotation
					JOINT rshoulder
					{
						OFFSET -0.113228 0.046853 -0.008472
						CHANNELS 3 Zrotation Yrotation Xrotation
						JOINT relbow
						{
							OFFSET -0.260127 -0.014369 -0.031269
							CHANNELS 3 Zrotation Yrotation Xrotation
							JOINT rwrist
							{
								OFFSET -0.269108 0.006794 -0.006027
								CHANNELS 3 Zrotation Yrotation Xrotation
								End Site
								{
									OFFSET 0.000000 0.000000 0.000000
								}
							}
						}
					}
				}
			}
		}
	}
}
MOTION
Frames: 13
Frame Time: 0.033333
0.027970 0.202866 0.981373 65.710853 0.248204 85.222591 -2.534676 2.900862 7.059423 -1.740808 -7.213672 4.224015 3.101297 16.109928 -16.160157 0.000000 -0.000000 0.000000 4.567181 -1.935223 3.076800 0.376941 2.901438 12.676056 2.556939 -15.611069 -20.652576 0.000000 -0.000000 0.000000 2.176249 -0.449034 7.734357 1.200375 -1.334533 -0.811393 -0.349722 -2.091382 4.744204 1.910190 2.506383 -10.198095 -3.011486 0.611863 1.721081 -21.459749 10.383521 2.327231 -21.113816 8.264447 5.391918 -14.217117 -64.607711 29.661395 3.001626 -24.105046 11.675489 17.172322 -8.718300 0.633408 17.361865 -11.761942 10.294550 -1.304257 72.417334 20.995767 0.035364 21.454630 19.685002 
0.029696 0.203485 0.981272 65.626190 0.193601 85.349519 -2.662072 2.865027 7.019831 -1.665563 -7.352471 4.070299 2.983003 16.347736 -16.110384 0.000000 -0.000000 0.000000 4.433873 -2.114571 3.067666 0.418745 3.316039 12.539825 2.958953 -15.746591 -20.652521 0.000000 -0.000000 0.000000 2.175544 -0.496784 7.328905 1.212077 -1.330797 -0.915061 -0.360709 -2.141515 5.177179 1.855271 2.287625 -9.864541 -3.021565 0.978636 0.807130 -20.581864 11.897931 2.219556 -19.696633 9.110404 6.404903 -24.356159 -67.805745 39.716516 4.816107 -26.110718 10.555132 15.982363 -10.325716 0.456501 15.272474 -12.851446 11.146144 9.425563 76.616286 31.597963 -1.239640 23.019515 19.169572 
0.030657 0.204024 0.981169 65.532315 0.165884 85.506781 -2.747911 2.734879 6.888143 -1.626294 -7.407277 3.990855 2.970222 16.661729 -16.112701 0.000000 -0.000000 0.000000 4.393812 -2.036973 2.972036 0.424148 3.495844 12.456755 3.184292 -15.966826 -20.621836 0.000000 -0.000000 0.000000 2.150933 -0.598206 7.026743 1.189420 -1.185014 -1.153071 -0.410030 -2.174709 5.783016 1.741686 2.041278 -9.565086 -2.880196 1.282811 -0.122815 -19.533905 13.674651 2.467823 -19.010316 9.905137 7.656186 -40.937785 -71.318572 56.298865 7.571196 -28.054763 7.945024 14.755826 -12.179139 0.531730 14.017907 -13.985510 12.337267 32.675855 80.679755 54.766636 -3.278115 24.837889 17.927445 
0.031763 0.204423 0.981201 65.390063 0.114756 85.538536 -2.761847 2.688765 6.735947 -1.748208 -7.224991 4.206265 2.853090 16.670008 -16.213613 0.000000 -0.000000 0.000000 4.312716 -2.123868 2.984247 0.357668 3.571245 12.442411 3.505825 -15.863732 -20.734179 0.000000 -0.000000 0.000000 2.062558 -0.627854 6.821323 1.187820 -1.077004 -1.321627 -0.443436 -2.196475 6.383211 1.692635 1.840268 -9.236752 -2.823265 1.526917 -0.986251 -18.628670 15.523349 2.456568 -18.664781 10.690267 9.418987 -65.560066 -72.766690 81.271770 12.127064 -30.572498 4.806827 13.680961 -14.046826 0.648883 13.389097 -15.228082 13.867578 76.879937 81.787999 98.679287 -6.736687 27.046760 16.162937 
0.032578 0.204750 0.981160 65.387936 0.061317 85.490270 -2.848550 2.586915 6.740150 -1.714328 -7.179839 4.252963 2.824848 16.725684 -16.350759 0.000000 -0.000000 0.000000 4.198987 -2.235075 3.095134 0.366438 3.609034 12.389151 3.843202 -15.772005 -20.827830 0.000000 -0.000000 0.000000 1.975173 -0.746001 6.845062 1.166395 -1.066704 -1.487734 -0.575169 -2.419141 7.037501 1.717512 1.586374 -9.432027 -2.719829 1.797725 -1.483809 -17.891119 17.513655 2.261825 -18.744115 11.477060 11.345888 -90.955199 -70.689503 107.689414 16.257468 -32.374738 1.872387 13.089615 -15.677558 0.524868 13.001439 -16.077335 15.761021 112.104497 77.894820 133.657088 -9.734236 28.878494 14.791138 
0.033224 0.204865 0.980963 65.233566 0.036785 85.451913 -2.872727 2.449638 6.680769 -1.717634 -6.820608 4.361448 2.785953 16.696084 -16.502802 0.000000 -0.000000 0.000000 4.169793 -2.103638 3.131650 0.298141 3.407202 12.436975 4.046870 -15.459618 -20.959567 0.000000 -0.000000 0.000000 1.864530 -0.774305 6.703560 1.166610 -0.999597 -1.445322 -0.610827 -2.503979 7.465379 1.618296 1.548265 -8.968213 -2.595760 2.098582 -1.914187 -17.401978 18.836403 2.552992 -19.758838 12.343156 13.478582 -107.792171 -66.515275 125.914164 20.499547 -33.990222 -1.027468 12.373357 -16.852586 0.702576 13.612576 -16.940886 17.850565 126.605889 71.956617 149.006318 -13.272769 30.837347 12.767949 
0.033233 0.205144 0.980667 65.053667 0.122975 85.485435 -2.729350 2.319285 6.570921 -1.811281 -6.282033 4.472756 2.874865 16.466707 -16.548786 0.000000 -0.000000 0.000000 4.229120 -1.887419 3.008019 0.270577 3.009746 12.601468 3.981989 -15.042258 -21.063724 0.000000 -0.000000 0.000000 1.780574 -0.756108 6.340673 1.339311 -0.962770 -0.990063 -0.525621 -2.576685 7.469090 1.398293 1.796607 -8.220809 -2.764066 2.217698 -2.455844 -17.548449 19.402594 3.466745 -21.825782 13.407913 15.068370 -117.008829 -62.152396 136.646644 21.942451 -34.121014 -1.894600 12.046511 -17.634857 1.538816 15.259535 -17.850198 19.572206 134.188774 65.884366 157.997443 -14.351733 31.968987 11.931598 
0.032065 0.205393 0.980477 65.081942 0.101904 85.519106 -2.726798 1.945529 6.406431 -1.899758 -5.840560 4.635639 2.976888 16.297900 -16.595457 0.000000 -0.000000 0.000000 4.237644 -1.634475 2.821413 0.243037 2.540920 12.804356 3.872951 -14.752840 -21.139256 0.000000 -0.000000 0.000000 1.336831 -0.731520 6.190967 1.527551 -1.121701 -0.452274 -0.418015 -2.749076 7.437040 1.368583 2.024681 -8.246361 -2.646457 2.121675 -2.561211 -18.251627 19.605288 3.813799 -24.063334 14.303244 16.937324 -121.947492 -58.241073 142.497547 22.597541 -33.266728 -2.878044 12.961146 -17.651428 2.008990 16.839205 -18.170198 21.815092 137.062015 60.301998 162.224272 -14.655302 32.102726 11.498214 
0.031136 0.205279 0.980098 64.840223 0.106661 85.419173 -2.684186 1.942837 6.549650 -1.881838 -5.266243 4.585616 3.038386 15.913862 -16.644780 0.000000 -0.000000 0.000000 4.228759 -1.508808 2.866334 0.154998 2.151366 12.940385 3.889468 -14.064755 -21.145054 0.000000 -0.000000 0.000000 1.003312 -0.597876 6.286587 1.626937 -1.148366 0.186311 -0.348905 -2.766943 7.211648 1.487132 2.335105 -8.412453 -2.710827 2.030282 -2.615882 -19.118341 19.454061 3.859535 -26.207939 14.865639 18.385822 -123.143061 -55.239800 144.728737 21.639741 -32.638539 -2.357499 14.110833 -17.363439 2.240487 19.192840 -18.164155 23.753093 137.459557 55.947321 164.218615 -13.349780 31.600273 12.277381 
0.029809 0.205242 0.979967 64.689464 0.182318 85.408322 -2.600448 1.787107 6.579671 -1.871759 -4.825038 4.517889 3.128607 15.858853 -16.724154 0.000000 -0.000000 0.000000 4.370215 -1.283673 2.800721 0.088598 1.935302 13.054310 3.846650 -13.855362 -21.178537 0.000000 -0.000000 0.000000 0.684217 -0.541573 6.740187 1.744888 -1.089129 0.114285 -0.188606 -2.751783 6.901060 1.568542 2.510320 -8.515261 -2.743051 2.057526 -2.376619 -20.047769 19.523851 4.080781 -27.981148 15.477047 19.168884 -122.970919 -54.377238 144.632794 22.352781 -31.810378 -3.198972 15.267730 -17.218771 2.636230 21.535146 -18.432289 25.051643 137.348325 54.346638 164.662364 -13.498103 31.003377 12.427372 
0.029066 0.205030 0.979586 64.590427 0.282624 85.479755 -2.520055 1.683143 6.436889 -1.862710 -4.629823 4.651831 3.266198 15.897907 -16.757615 0.000000 -0.000000 0.000000 4.446698 -1.379531 2.667479 0.097602 1.866141 13.159300 3.721749 -13.558928 -21.171859 0.000000 -0.000000 0.000000 0.404658 -0.463303 6.485742 1.933023 -1.180382 0.321284 -0.072979 -2.608552 7.112490 1.655016 2.807378 -8.673686 -2.812461 1.892093 -2.425251 -20.434029 20.473415 3.954686 -28.939086 15.602549 18.618369 -123.286899 -55.268418 144.291832 22.075807 -30.639538 -3.977169 15.914286 -18.065601 2.684224 23.130613 -18.855856 24.789287 138.191625 55.613327 164.379127 -13.767461 29.993220 9.710059 
0.029512 0.204526 0.979852 64.628484 0.541986 85.501184 -2.277227 1.765171 6.346258 -1.845044 -4.833407 4.820403 3.292135 15.965829 -16.823827 0.000000 -0.000000 0.000000 4.718838 -1.667531 2.725744 0.119600 2.160132 13.025951 3.581345 -13.709698 -21.068058 0.000000 -0.000000 0.000000 0.447493 -0.489918 6.006035 2.148690 -1.344291 0.441966 -0.129943 -2.649495 7.370630 1.765558 2.865516 -8.331618 -2.929239 2.215529 -2.515970 -20.448971 21.639650 3.894383 -28.666100 15.750951 17.898732 -123.872474 -55.767522 144.820561 21.021604 -29.875678 -4.120689 16.122885 -19.136737 2.128879 22.720492 -18.665129 23.734887 139.037943 56.830035 165.675842 -11.903374 29.603957 11.503375 
0.029629 0.204306 0.980145 63.982146 0.521051 85.529360 -2.385461 1.889460 6.476937 -1.802391 -4.816208 4.466736 3.373916 16.383008 -16.566360 0.000000 -0.000000 0.000000 4.743412 -1.186515 2.523582 0.158393 2.459805 13.205770 3.574390 -13.824074 -21.039003 0.000000 -0.000000 0.000000 0.318993 -0.601026 5.575256 2.016963 -1.012889 0.481469 -0.179147 -2.597860 7.636126 1.896806 2.718733 -7.935652 -2.644780 2.332113 -2.551430 -19.923824 22.067023 3.963068 -28.020281 16.097151 18.126041 -123.674601 -55.803155 144.197038 20.772448 -29.440799 -4.746354 15.875053 -19.528806 1.931084 21.938719 -18.062400 23.205100 137.938412 58.028922 163.989481 -11.746833 29.572906 11.244264 
